<?xml version="1.0" encoding="UTF-8"?>
<svg width="28px" height="26px" viewBox="0 0 28 26" version="1.1" xmlns="http://www.w3.org/2000/svg" xmlns:xlink="http://www.w3.org/1999/xlink">
    <!-- Generator: Sketch 48.2 (47327) - http://www.bohemiancoding.com/sketch -->
    <title>Star</title>
    <desc>Created with Sketch.</desc>
    <defs></defs>
    <g id="Page-1" stroke="none" stroke-width="1" fill="none" fill-rule="evenodd">
        <path d="M13.298539,21.2761509 C13.7373651,21.0439883 14.2626349,21.0439883 14.701461,21.2761509 L21.2477897,24.7395121 C21.3457736,24.7913509 21.4582062,24.8091584 21.5674134,24.7901355 C21.8394594,24.7427476 22.0215807,24.4837953 21.9741928,24.2117494 L20.7032674,16.9155834 C20.6180723,16.4264927 20.7803896,15.9269314 21.1367941,15.5813252 L26.4535731,10.4256341 C26.5331534,10.348465 26.584833,10.2470381 26.6004881,10.1372974 C26.6394863,9.86392265 26.4494866,9.61069432 26.1761119,9.57169609 L18.8443081,8.52577867 C18.3528285,8.45566672 17.9278763,8.14692084 17.7093203,7.70116179 L14.4489418,1.05140831 C14.4001412,0.951876392 14.3196484,0.871383536 14.2201165,0.822582971 C13.9721728,0.701016005 13.6726252,0.803464599 13.5510582,1.05140831 L10.2906797,7.70116179 C10.0721237,8.14692084 9.64717145,8.45566672 9.1556919,8.52577867 L1.82388814,9.57169609 C1.71414746,9.58735113 1.61272054,9.63903072 1.53555139,9.718611 C1.34331552,9.91685322 1.34818463,10.2333983 1.54642685,10.4256341 L6.86320585,15.5813252 C7.2196104,15.9269314 7.38192771,16.4264927 7.2967326,16.9155834 L6.02580722,24.2117494 C6.00678431,24.3209566 6.02459189,24.4333892 6.07643065,24.5313731 C6.20556605,24.7754605 6.50812292,24.8686475 6.75221031,24.7395121 L13.298539,21.2761509 Z" id="Star" stroke="#FF8B00"></path>
    </g>
</svg>