<?xml version="1.0" encoding="UTF-8"?>
<svg width="28px" height="26px" viewBox="0 0 28 26" version="1.1" xmlns="http://www.w3.org/2000/svg" xmlns:xlink="http://www.w3.org/1999/xlink">
    <!-- Generator: Sketch 48.2 (47327) - http://www.bohemiancoding.com/sketch -->
    <title>Star Copy</title>
    <desc>Created with Sketch.</desc>
    <defs></defs>
    <g id="Page-1" stroke="none" stroke-width="1" fill="none" fill-rule="evenodd">
        <path d="M13.5323593,21.7181103 L6.98603065,25.1814714 C6.49785586,25.4397422 5.89274213,25.2533682 5.63447132,24.7651934 C5.53079379,24.5692257 5.49517865,24.3443605 5.53322446,24.1259459 L6.80414984,16.82978 C6.86094658,16.5037195 6.75273504,16.1706787 6.51513201,15.9402745 L1.19835301,10.7845834 C0.801868559,10.4001117 0.792130344,9.7670216 1.1766021,9.37053716 C1.3309404,9.2113766 1.53379423,9.10801742 1.75327559,9.07670733 L9.08507935,8.03078991 C9.41273238,7.98404861 9.69603388,7.77821803 9.84173786,7.48104533 L13.1021164,0.831291847 C13.3452503,0.335404424 13.9443455,0.130507236 14.4402329,0.373641168 C14.6392968,0.471242299 14.8002825,0.63222801 14.8978836,0.831291847 L18.1582621,7.48104533 C18.3039661,7.77821803 18.5872676,7.98404861 18.9149207,8.03078991 L26.2467244,9.07670733 C26.7934739,9.1547038 27.1734733,9.66116046 27.0954768,10.2079099 C27.0641667,10.4273913 26.9608075,10.6302451 26.801647,10.7845834 L21.484868,15.9402745 C21.247265,16.1706787 21.1390534,16.5037195 21.1958502,16.82978 L22.4667755,24.1259459 C22.5615514,24.6700378 22.1973087,25.1879425 21.6532168,25.2827183 C21.4348023,25.3207641 21.2099371,25.285149 21.0139693,25.1814714 L14.4676407,21.7181103 C14.17509,21.5633352 13.82491,21.5633352 13.5323593,21.7181103 Z" id="Star-Copy" fill="#FF8B00"></path>
    </g>
</svg>
