<?xml version="1.0" encoding="UTF-8"?>
<svg width="140px" height="40px" viewBox="0 0 140 40" version="1.1" xmlns="http://www.w3.org/2000/svg" xmlns:xlink="http://www.w3.org/1999/xlink">
    <!-- Generator: Sketch 48.2 (47327) - http://www.bohemiancoding.com/sketch -->
    <title>login__social-sprite copy</title>
    <desc>Created with Sketch.</desc>
    <defs></defs>
    <g id="Page-1" stroke="none" stroke-width="1" fill="none" fill-rule="evenodd">
        <g id="login__social-sprite-copy" fill-rule="nonzero">
            <g id="if_social-circle-google-plus_682223" transform="translate(100.000000, 0.000000)">
                <circle id="Oval" fill="#D95032" cx="20" cy="20" r="20"></circle>
                <g id="Group" transform="translate(6.474359, 11.585306)" fill="#FFFFFF">
                    <path d="M9.30142012,17.8222078 C4.30778846,17.8222078 0.244981509,13.8329216 0.244981509,8.92777737 C0.244981509,4.02289571 4.30778846,0.0330843195 9.30142012,0.0330843195 C11.4855104,0.0330843195 13.5955547,0.808202663 15.2418935,2.21481139 L12.9388572,4.81403107 C11.9310984,3.95305104 10.6392345,3.47857988 9.30142012,3.47857988 C6.24190828,3.47857988 3.75323225,5.92314349 3.75323225,8.92751479 C3.75323225,11.9316235 6.24217086,14.3759246 9.30142012,14.3759246 C11.8898743,14.3759246 13.5842641,13.1357877 14.1346191,10.9107359 L9.34421967,10.9107359 L9.34421967,7.46550296 L17.8376997,7.46550296 L17.8376997,9.18851331 C17.8376997,14.3520303 14.4071709,17.8222078 9.30142012,17.8222078 Z" id="Shape"></path>
                    <polygon id="Shape" points="27.2903624 7.4670784 24.6646228 7.4670784 24.6646228 4.84133876 22.5640311 4.84133876 22.5640311 7.4670784 19.9382914 7.4670784 19.9382914 9.56767012 22.5640311 9.56767012 22.5640311 12.1934098 24.6646228 12.1934098 24.6646228 9.56767012 27.2903624 9.56767012"></polygon>
                </g>
            </g>
            <g id="if_twitter_circle_294709" transform="translate(50.000000, 0.000000)">
                <circle id="Oval" fill="#1CB7EB" cx="20" cy="20" r="20"></circle>
                <path d="M30.6666667,12.8333333 C29.9166667,13.25 29,13.5 28.1666667,13.5833333 C29.0833333,13 29.75,12.0833333 30.0833333,11 C29.25,11.5 28.3333333,11.9166667 27.25,12.1666667 C26.4166667,11.25 25.3333333,10.6666667 24.0833333,10.6666667 C21.6666667,10.6666667 19.6666667,12.75 19.6666667,15.4166667 C19.6666667,15.75 19.6666667,16.1666667 19.75,16.5 C16.0833333,16.3333333 12.8333333,14.4166667 10.6666667,11.5833333 C10.25,12.25 10.0833333,13.0833333 10.0833333,14 C10.0833333,15.6666667 10.8333333,17.0833333 12,17.9166667 C11.25,17.9166667 10.5833333,17.6666667 10,17.3333333 C10,17.3333333 10,17.4166667 10,17.4166667 C10,19.6666667 11.5,21.5833333 13.5,22.0833333 C13.1666667,22.1666667 12.75,22.25 12.3333333,22.25 C12.0833333,22.25 11.75,22.25 11.5,22.1666667 C12.0833333,24.0833333 13.6666667,25.4166667 15.5833333,25.4166667 C14.0833333,26.6666667 12.1666667,27.4166667 10.1666667,27.4166667 C9.83333333,27.4166667 9.5,27.4166667 9.08333333,27.3333333 C11,28.6666667 13.3333333,29.5 15.8333333,29.5 C23.9166667,29.5 28.3333333,22.3333333 28.3333333,16.0833333 C28.3333333,15.9166667 28.3333333,15.6666667 28.3333333,15.5 C29.3333333,14.6666667 30.0833333,13.8333333 30.6666667,12.8333333 Z" id="Shape" fill="#FFFFFF"></path>
            </g>
            <g id="if_facebook_circle_294710">
                <circle id="Oval" fill="#4E71A8" cx="20" cy="20" r="20"></circle>
                <path d="M24.9166667,16.25 L21.5833333,16.25 L21.5833333,14.0833333 C21.5833333,13.25 22.1666667,13.0833333 22.5,13.0833333 C22.9166667,13.0833333 24.8333333,13.0833333 24.8333333,13.0833333 L24.8333333,9.41666667 L21.5833333,9.41666667 C17.9166667,9.41666667 17.1666667,12.1666667 17.1666667,13.8333333 L17.1666667,16.25 L15.0833333,16.25 L15.0833333,20 L17.1666667,20 C17.1666667,24.8333333 17.1666667,30.5833333 17.1666667,30.5833333 L21.5833333,30.5833333 C21.5833333,30.5833333 21.5833333,24.75 21.5833333,20 L24.5833333,20 L24.9166667,16.25 Z" id="Shape" fill="#FFFFFF"></path>
            </g>
        </g>
    </g>
</svg>
