<?xml version="1.0" encoding="UTF-8"?>
<svg width="41px" height="22px" viewBox="0 0 41 22" version="1.1" xmlns="http://www.w3.org/2000/svg" xmlns:xlink="http://www.w3.org/1999/xlink">
    <!-- Generator: Sketch 48.2 (47327) - http://www.bohemiancoding.com/sketch -->
    <title>Group</title>
    <desc>Created with Sketch.</desc>
    <defs></defs>
    <g id="Page-1" stroke="none" stroke-width="1" fill="none" fill-rule="evenodd">
        <g id="Group" fill-rule="nonzero">
            <path d="M27.3487603,22 C25.8903063,18.9490656 26.6669859,17.2008483 27.7879172,15.553776 C29.0154475,13.7499948 29.3317981,11.9644875 29.3317981,11.9644875 C29.3317981,11.9644875 30.2967698,13.2256245 29.9107483,15.198077 C31.6155125,13.2902633 31.9372382,10.2506314 31.6798084,9.08651443 C35.5332124,11.7937536 37.1800817,17.655671 34.9606631,22 C46.7651338,15.2854858 37.8969377,5.23850577 36.3530158,4.10677007 C36.8676701,5.23846452 36.9652833,7.15432197 35.9256348,8.08409755 C34.1657246,1.37498711 29.814284,0 29.814284,0 C30.3289383,3.45992841 27.9487595,7.24333953 25.6535563,10.0703688 C25.57293,8.69072043 25.4872568,7.73871109 24.7656001,6.41846276 C24.6036089,8.92473183 22.6984073,10.9677219 22.182481,13.4788584 C21.4836376,16.8795105 22.705957,19.3694446 27.3487603,22 Z" id="Shape" fill="#E8E8E8"></path>
            <path d="M5.34876026,22 C3.8903063,18.9490656 4.66698586,17.2008483 5.78791718,15.553776 C7.01544755,13.7499948 7.33179809,11.9644875 7.33179809,11.9644875 C7.33179809,11.9644875 8.29676982,13.2256245 7.9107483,15.198077 C9.61551255,13.2902633 9.93723818,10.2506314 9.67980844,9.08651443 C13.5332124,11.7937536 15.1800817,17.655671 12.9606631,22 C24.7651338,15.2854858 15.8969377,5.23850577 14.3530158,4.10677007 C14.8676701,5.23846452 14.9652833,7.15432197 13.9256348,8.08409755 C12.1657246,1.37498711 7.81428396,0 7.81428396,0 C8.32893828,3.45992841 5.94875948,7.24333953 3.65355628,10.0703688 C3.57292998,8.69072043 3.48725683,7.73871109 2.76560011,6.41846276 C2.60360894,8.92473183 0.698407288,10.9677219 0.182480995,13.4788584 C-0.516362381,16.8795105 0.705957029,19.3694446 5.34876026,22 Z" id="Shape" fill="#FF2626"></path>
        </g>
    </g>
</svg>
