<svg id="Layer_1" data-name="Layer 1" xmlns="http://www.w3.org/2000/svg" viewBox="0 0 1185.28 1061.11"><defs><style>.cls-1{fill:#000008;}</style></defs><title>lancerwithtext</title><path d="M739.41,1017.57h39.7v144.36h90V1198H739.41Z" transform="translate(-407.36 -469.45)"/><path d="M886.59,1158.32v-.52c0-30.16,22.94-44.08,55.68-44.08A98.25,98.25,0,0,1,976,1119.4v-2.32c0-16.24-10.05-25.26-29.65-25.26-15,0-25.52,2.84-38.15,7.47l-9.8-29.9c15.21-6.7,30.16-11.09,53.62-11.09,21.4,0,36.87,5.67,46.66,15.47,10.31,10.31,15,25.52,15,44.08V1198H975.78v-15c-9.54,10.57-22.68,17.53-41.76,17.53C908,1200.6,886.59,1185.65,886.59,1158.32Zm90-9v-7a60.76,60.76,0,0,0-25-5.15c-16.75,0-27.06,6.7-27.06,19.08v.52c0,10.57,8.76,16.75,21.4,16.75C964.19,1173.53,976.56,1163.48,976.56,1149.3Z" transform="translate(-407.36 -469.45)"/><path d="M1047.44,1059.85h39.18v19.59c9-11.6,20.62-22.17,40.47-22.17,29.65,0,46.92,19.59,46.92,51.3V1198h-39.18v-77.08c0-18.56-8.76-28.1-23.72-28.1s-24.49,9.54-24.49,28.1V1198h-39.18Z" transform="translate(-407.36 -469.45)"/><path d="M1201.33,1129.71v-.52c0-39.44,30.16-71.92,72.44-71.92,26,0,42.28,8.76,55.17,23.2l-24,25.78c-8.77-9.28-17.53-15.21-31.45-15.21-19.59,0-33.51,17.27-33.51,37.63v.52c0,21.14,13.66,38.15,35.06,38.15,13.15,0,22.17-5.67,31.71-14.69l22.94,23.2c-13.41,14.7-28.87,25.26-56.46,25.26C1231.75,1201.11,1201.33,1169.15,1201.33,1129.71Z" transform="translate(-407.36 -469.45)"/><path d="M1344.66,1129.71v-.52c0-39.44,28.1-71.92,68.31-71.92,46.15,0,67.28,35.83,67.28,75,0,3.1-.26,6.7-.52,10.31h-96.15c3.87,17.79,16.24,27.06,33.77,27.06,13.15,0,22.69-4.12,33.51-14.18l22.43,19.85c-12.89,16-31.45,25.78-56.45,25.78C1375.33,1201.11,1344.66,1172,1344.66,1129.71Zm97.44-11.6c-2.32-17.53-12.63-29.39-29.13-29.39-16.24,0-26.81,11.6-29.9,29.39Z" transform="translate(-407.36 -469.45)"/><path d="M1509.37,1059.85h39.18v27.84c8-19.07,20.88-31.45,44.08-30.42v41h-2.06c-26,0-42,15.73-42,48.72v51h-39.18Z" transform="translate(-407.36 -469.45)"/><path d="M499.94,1237.57h36.6l84.55,111.1v-111.1h39.18V1418H626.51L539.12,1303.3V1418H499.94Z" transform="translate(-407.36 -469.45)"/><path d="M692.75,1349.71v-.52c0-39.44,28.1-71.92,68.31-71.92,46.15,0,67.28,35.83,67.28,75,0,3.1-.26,6.7-.52,10.31H731.67c3.87,17.79,16.24,27.06,33.77,27.06,13.15,0,22.69-4.12,33.51-14.18l22.43,19.85c-12.89,16-31.45,25.78-56.45,25.78C723.43,1421.11,692.75,1392,692.75,1349.71Zm97.44-11.6c-2.32-17.53-12.63-29.39-29.13-29.39-16.24,0-26.81,11.6-29.9,29.39Z" transform="translate(-407.36 -469.45)"/><path d="M863.91,1378.83v-65.48h-16.5v-33.51h16.5v-35.32h39.18v35.32h32.48v33.51H903.09v59c0,9,3.87,13.41,12.63,13.41a39.82,39.82,0,0,0,19.33-4.9v31.45c-8.25,4.9-17.79,8-30.94,8C880.15,1420.34,863.91,1410.8,863.91,1378.83Z" transform="translate(-407.36 -469.45)"/><path d="M953.1,1279.85h39.7l22.17,83.78,26-84.29h33.77l26.3,84.55,22.69-84h38.92l-43,139.2h-35.32l-26.55-84.81L1030.69,1419H995.63Z" transform="translate(-407.36 -469.45)"/><path d="M1173.24,1349.71v-.52c0-39.7,32-71.92,75-71.92,42.79,0,74.5,31.71,74.5,71.4v.52c0,39.7-32,71.92-75,71.92C1204.94,1421.11,1173.24,1389.4,1173.24,1349.71Zm110.85,0v-.52c0-20.36-14.7-38.15-36.35-38.15-22.43,0-35.83,17.27-35.83,37.63v.52c0,20.36,14.69,38.15,36.35,38.15C1270.68,1387.34,1284.09,1370.07,1284.09,1349.71Z" transform="translate(-407.36 -469.45)"/><path d="M1351.1,1279.85h39.18v27.84c8-19.07,20.88-31.45,44.08-30.42v41h-2.06c-26,0-42,15.73-42,48.72v51H1351.1Z" transform="translate(-407.36 -469.45)"/><path d="M1458.85,1229.84H1498v100.27l45.89-50.27h46.91l-52.59,54.39,54.39,83.78h-44.86l-36.09-56.46L1498,1376v42h-39.18Z" transform="translate(-407.36 -469.45)"/><polygon class="cls-1" points="92.57 577.09 92.57 707.72 740.49 245.3 591.57 396.82 740.49 396.82 954.71 109.44 575.89 187.82 502.74 360.25 92.57 577.09"/><path d="M1468.48,469.45H407.36V1530.55H1468.48v-89.34h-68.22v21.11H475.58V537.67h924.67v497.4a91.28,91.28,0,0,1,12.71-1c21.87,0,40.69,6.61,55.51,18.18Z" transform="translate(-407.36 -469.45)"/></svg>